<?xml version="1.0" standalone="no"?>
<!DOCTYPE svg PUBLIC "-//W3C//DTD SVG 20010904//EN"
 "http://www.w3.org/TR/2001/REC-SVG-20010904/DTD/svg10.dtd">
<svg version="1.0" xmlns="http://www.w3.org/2000/svg"
 width="735.000000pt" height="818.000000pt" viewBox="0 0 735.000000 818.000000"
 preserveAspectRatio="xMidYMid meet">

<g transform="translate(0.000000,818.000000) scale(0.100000,-0.100000)"
fill="#000000" stroke="none">
<path d="M2720 8025 c-101 -29 -183 -95 -230 -185 -24 -48 -42 -136 -38 -189
l3 -44 1900 -634 c1045 -348 1925 -643 1955 -655 58 -23 167 -90 211 -130 53
-50 123 -145 155 -213 69 -145 64 16 64 -2155 l0 -1966 88 -29 c110 -37 199
-39 287 -5 75 29 155 104 192 179 l28 56 3 2025 c3 2283 9 2109 -75 2279 -37
75 -62 110 -122 170 -42 42 -105 93 -140 113 -85 49 -4092 1387 -4173 1394
-30 2 -76 -3 -108 -11z"/>
<path d="M650 6674 c-106 -29 -198 -106 -243 -202 l-22 -47 -3 -1382 -2 -1383
26 0 c43 0 4019 -1327 4111 -1372 141 -68 274 -212 331 -358 50 -126 52 -151
52 -841 l0 -646 58 9 c159 25 272 135 301 293 15 78 15 3891 1 4016 -18 161
-73 285 -174 396 -57 63 -153 134 -222 165 -104 46 -4056 1357 -4106 1362 -33
3 -74 0 -108 -10z"/>
</g>
</svg>
