<svg xmlns="http://www.w3.org/2000/svg" xmlns:xlink="http://www.w3.org/1999/xlink" width="416" zoomAndPan="magnify" viewBox="0 0 312 347.999987" height="464" preserveAspectRatio="xMidYMid meet" version="1.0"><defs><filter x="0%" y="0%" width="100%" height="100%" id="8a54b5318f"><feColorMatrix values="0 0 0 0 1 0 0 0 0 1 0 0 0 0 1 0 0 0 1 0" color-interpolation-filters="sRGB"/></filter><mask id="cbe53cada6"><g filter="url(#8a54b5318f)"><rect x="-31.2" width="374.4" fill="#000000" y="-34.799999" height="417.599984" fill-opacity="0.95"/></g></mask><clipPath id="ca1916cc0f"><path d="M 1 8 L 208.996094 8 L 208.996094 269 L 1 269 Z M 1 8 " clip-rule="nonzero"/></clipPath><clipPath id="fee8adc0cf"><path d="M 1 177.988281 L 1 29.996094 C 1 23.042969 4.34375 16.515625 9.980469 12.453125 C 15.621094 8.390625 22.867188 7.285156 29.460938 9.480469 L 180.535156 59.839844 C 197.53125 65.503906 208.996094 81.410156 208.996094 99.324219 L 208.996094 247.320312 C 208.996094 254.269531 205.652344 260.796875 200.015625 264.859375 C 194.375 268.925781 187.128906 270.03125 180.535156 267.832031 L 29.460938 217.476562 C 12.464844 211.808594 1 195.90625 1 177.988281 Z M 1 177.988281 " clip-rule="nonzero"/></clipPath><clipPath id="7b8514c49f"><rect x="0" width="209" y="0" height="278"/></clipPath><mask id="0434a3eaef"><g filter="url(#8a54b5318f)"><rect x="-31.2" width="374.4" fill="#000000" y="-34.799999" height="417.599984" fill-opacity="0.9"/></g></mask><clipPath id="6905034e99"><path d="M 0.585938 9 L 208.582031 9 L 208.582031 270 L 0.585938 270 Z M 0.585938 9 " clip-rule="nonzero"/></clipPath><clipPath id="d389c2e787"><path d="M 0.585938 178.820312 L 0.585938 30.828125 C 0.585938 23.875 3.929688 17.351562 9.566406 13.285156 C 15.203125 9.222656 22.453125 8.117188 29.046875 10.3125 L 180.121094 60.671875 C 197.117188 66.335938 208.582031 82.242188 208.582031 100.160156 L 208.582031 248.152344 C 208.582031 255.101562 205.238281 261.628906 199.601562 265.695312 C 193.960938 269.757812 186.714844 270.863281 180.121094 268.664062 L 29.046875 218.308594 C 12.050781 212.640625 0.585938 196.738281 0.585938 178.820312 Z M 0.585938 178.820312 " clip-rule="nonzero"/></clipPath><clipPath id="7ae92c290b"><rect x="0" width="209" y="0" height="279"/></clipPath><mask id="8cbd9bc022"><g filter="url(#8a54b5318f)"><rect x="-31.2" width="374.4" fill="#000000" y="-34.799999" height="417.599984" fill-opacity="0.85"/></g></mask><clipPath id="d86f07ac97"><path d="M 0.945312 9 L 208.9375 9 L 208.9375 270.304688 L 0.945312 270.304688 Z M 0.945312 9 " clip-rule="nonzero"/></clipPath><clipPath id="7ee430b614"><path d="M 0.945312 179.097656 L 0.945312 31.105469 C 0.945312 24.15625 4.285156 17.628906 9.925781 13.5625 C 15.5625 9.5 22.8125 8.394531 29.40625 10.589844 L 180.476562 60.949219 C 197.472656 66.613281 208.9375 82.519531 208.9375 100.4375 L 208.9375 248.429688 C 208.9375 255.378906 205.597656 261.90625 199.957031 265.972656 C 194.320312 270.035156 187.070312 271.140625 180.476562 268.941406 L 29.40625 218.585938 C 12.410156 212.921875 0.945312 197.015625 0.945312 179.097656 Z M 0.945312 179.097656 " clip-rule="nonzero"/></clipPath><clipPath id="92cca286c3"><rect x="0" width="209" y="0" height="279"/></clipPath><clipPath id="90025617b8"><path d="M 15.867188 65 L 223.863281 65 L 223.863281 326.554688 L 15.867188 326.554688 Z M 15.867188 65 " clip-rule="nonzero"/></clipPath><clipPath id="a7475a4e46"><path d="M 15.867188 235.347656 L 15.867188 87.351562 C 15.867188 80.402344 19.210938 73.875 24.847656 69.8125 C 30.488281 65.746094 37.734375 64.640625 44.328125 66.839844 L 195.402344 117.199219 C 212.398438 122.863281 223.863281 138.769531 223.863281 156.683594 L 223.863281 304.679688 C 223.863281 311.628906 220.519531 318.15625 214.882812 322.21875 C 209.242188 326.285156 201.996094 327.390625 195.402344 325.191406 L 44.328125 274.832031 C 27.332031 269.167969 15.867188 253.261719 15.867188 235.347656 Z M 15.867188 235.347656 " clip-rule="nonzero"/></clipPath><mask id="7fda02818f"><g filter="url(#8a54b5318f)"><rect x="-31.2" width="374.4" fill="#000000" y="-34.799999" height="417.599984" fill-opacity="0.8"/></g></mask><clipPath id="5aeba432d8"><path d="M 0.00390625 8.253906 L 208 8.253906 L 208 153 L 0.00390625 153 Z M 0.00390625 8.253906 " clip-rule="nonzero"/></clipPath><clipPath id="d57525a8cb"><path d="M 0.00390625 62.007812 L 0.00390625 30.0625 C 0.00390625 23.113281 3.34375 16.585938 8.980469 12.519531 C 14.621094 8.457031 21.871094 7.351562 28.464844 9.550781 L 179.535156 59.90625 C 196.53125 65.574219 207.996094 81.476562 207.996094 99.394531 L 207.996094 131.339844 C 207.996094 138.289062 204.65625 144.816406 199.015625 148.882812 C 193.378906 152.945312 186.128906 154.050781 179.535156 151.855469 L 28.464844 101.496094 C 11.464844 95.832031 0.00390625 79.925781 0.00390625 62.007812 Z M 0.00390625 62.007812 " clip-rule="nonzero"/></clipPath><clipPath id="26f179e78b"><rect x="0" width="209" y="0" height="162"/></clipPath></defs><g mask="url(#cbe53cada6)"><g transform="matrix(1, 0, 0, 1, 103, 0)"><g clip-path="url(#7b8514c49f)"><g clip-path="url(#ca1916cc0f)"><g clip-path="url(#fee8adc0cf)"><path fill="#ea4335" d="M 1 277.320312 L 1 0.265625 L 208.996094 0.265625 L 208.996094 277.320312 Z M 1 277.320312 " fill-opacity="1" fill-rule="nonzero"/></g></g></g></g></g><g mask="url(#0434a3eaef)"><g transform="matrix(1, 0, 0, 1, 78, 15)"><g clip-path="url(#7ae92c290b)"><g clip-path="url(#6905034e99)"><g clip-path="url(#d389c2e787)"><path fill="#7cbb00" d="M 0.585938 278.152344 L 0.585938 1.097656 L 208.582031 1.097656 L 208.582031 278.152344 Z M 0.585938 278.152344 " fill-opacity="1" fill-rule="nonzero"/></g></g></g></g></g><g mask="url(#8cbd9bc022)"><g transform="matrix(1, 0, 0, 1, 49, 36)"><g clip-path="url(#92cca286c3)"><g clip-path="url(#d86f07ac97)"><g clip-path="url(#7ee430b614)"><path fill="#fbbc05" d="M 0.945312 278.429688 L 0.945312 1.375 L 208.9375 1.375 L 208.9375 278.429688 Z M 0.945312 278.429688 " fill-opacity="1" fill-rule="nonzero"/></g></g></g></g></g><g clip-path="url(#90025617b8)"><g clip-path="url(#a7475a4e46)"><path fill="#4285f4" d="M 15.867188 334.679688 L 15.867188 57.625 L 223.863281 57.625 L 223.863281 334.679688 Z M 15.867188 334.679688 " fill-opacity="1" fill-rule="nonzero"/></g></g><g mask="url(#7fda02818f)"><g transform="matrix(1, 0, 0, 1, 0, 186)"><g clip-path="url(#26f179e78b)"><g clip-path="url(#5aeba432d8)"><g clip-path="url(#d57525a8cb)"><path fill="#d4d8d5" d="M 0.00390625 161.339844 L 0.00390625 0.0625 L 207.898438 0.0625 L 207.898438 161.339844 Z M 0.00390625 161.339844 " fill-opacity="1" fill-rule="nonzero"/></g></g></g></g></g></svg>